<svg version="1.1" id="Layer_1" xmlns="http://www.w3.org/2000/svg" x="0" y="0" viewBox="0 0 150 150" xml:space="preserve"><style>.st0{fill:#fff}.st2{fill:#015b9d}</style><path class="st0" d="M66.2 4L20.7 49.4c-2.5 2.5-3.8 5.7-3.8 9.2s1.4 6.7 3.8 9.2l45.5 45.5c5.1 5.1 13.3 5.1 18.4 0l45.5-45.5c2.5-2.5 3.8-5.7 3.8-9.2s-1.4-6.7-3.8-9.2L84.6 4C82.1 1.5 78.9.2 75.4.2 71.9.1 68.7 1.5 66.2 4zm3.9 105.4L24.6 63.9c-1.4-1.4-2.2-3.3-2.2-5.3s.8-3.9 2.2-5.3L70.1 7.9c1.4-1.4 3.3-2.2 5.3-2.2s3.9.8 5.3 2.2l45.5 45.5c1.4 1.4 2.2 3.3 2.2 5.3s-.8 3.9-2.2 5.3l-45.5 45.5c-2.9 2.8-7.7 2.8-10.6-.1z"/><linearGradient id="SVGID_1_" gradientUnits="userSpaceOnUse" x1="45.4" y1="123.4" x2="105.35" y2="63.45" gradientTransform="matrix(1 0 0 -1 0 152)"><stop offset=".41" stop-color="#005b9d"/><stop offset=".64" stop-color="#e8600f"/></linearGradient><path d="M82.6 111.3l45.5-45.5c4-4 4-10.5 0-14.5L82.6 5.9c-4-4-10.5-4-14.5 0L22.7 51.4c-4 4-4 10.5 0 14.5l45.5 45.5c4 3.9 10.4 3.9 14.4-.1z" fill="url(#SVGID_1_)"/><path class="st0" d="M98.4 63.3C96.7 72.4 88.7 80 78.9 81c-3.9.4-7.6-.3-11-1.7-.5.5-7.2 7.1-7.9 8 5.8 3.4 12.8 5.1 20 4.4 12.3-1.2 22.3-9.3 26.9-19.9l-8.5-8.5zM53.5 82.3c1.3 1.3 2.6 2.4 4 3.4l46-45.9c-1-1.4-2.2-2.8-3.4-4L53.5 82.3zM98.1 33.9c-1.5-1.3-2.9-2.3-4.3-3.2-5.9-3.5-13-5.4-20.4-4.6-18.1 1.8-31.3 18-29.5 36.1.5 5.5 2.3 10.3 5.1 14.6.8 1.2 2.6 3.5 2.6 3.5l46.5-46.4zm-22.6 2.8c3.8-.4 7.5.2 10.8 1.6L57.1 67.5c-.8-2-1.4-4.1-1.6-6.4-1.2-12.2 7.7-23.1 20-24.4z"/><g><path class="st2" d="M116.7 140.2v-18.4h-4.2v18.4c0 3.2-2.6 5.8-5.8 5.8h-7.6v4.2h7.6c5.5-.1 10-4.5 10-10zM64.7 121.3h-6c-1.9.1-3.4 1.6-3.4 3.6v24.5h4.2v-23.8h5.2c2.9 0 5.3 2.4 5.3 5.3s-2.4 5.3-5.3 5.3h-3.2v4.2h3.2c5.2 0 9.4-4.2 9.4-9.4 0-5.5-4.2-9.7-9.4-9.7zM94.9 130.6V125v-.2c0-1.9-1.5-3.5-3.4-3.6h-6c-5.2 0-9.4 4.2-9.4 9.4s4.2 9.4 9.4 9.4h3.2v-4h-3.2c-2.9 0-5.3-2.4-5.3-5.3s2.4-5.3 5.3-5.3h5.2v14.7h4.2v-9.3-.2c.1.1 0 0 0 0z"/><path class="st2" d="M107.3 136c-2.9 0-5.3-2.4-5.3-5.3v-9h-4.2v9c0 5.2 4.2 9.4 9.4 9.4h3.2V136h-3.1z"/></g><path class="st2" d="M43.2 136.1c-1.4 0-2.7-.1-3.4-.4-2.1-.9-3.6-3-3.6-5.4 0-3.3 2.7-6.1 6-6.1 2.8 0 5.1 2 5.7 4.6h-9.6v3.2h13.6c.1-.6.2-3.5.2-3.6-.4-6.6-5.9-8.3-9.9-8.1-.1 0 0 0 0 0-5.5 0-9.9 4.4-9.9 9.9 0 3.2 1.5 6 3.8 7.8 1.7 1.3 3.4 2.1 7.7 2.1h9.4v-4h-10z"/></svg>