<svg xmlns="http://www.w3.org/2000/svg" viewBox="0 0 1000 1000"><path fill="none" d="M52 947h894"/><path d="M500 53C253.1 53 53 253.1 53 500s200.1 447 447 447 447-200.1 447-447S746.9 53 500 53zm62.9 757H435.8V385h127.1v425zm8.6-512.9c-4.1 8.9-9.7 16.6-16.8 23.3-7.1 6.7-15.4 12-24.8 16s-19.5 5.9-30.2 5.9c-10.4 0-20.1-2-29.1-5.9s-17-9.3-24-16-12.4-14.5-16.4-23.3c-4-8.9-6-18.4-6-28.5 0-10.4 2-20.1 6-29.1 3.9-9 9.4-16.9 16.4-23.8 7-6.8 15-12.1 24-16 9-3.8 18.7-5.7 29.1-5.7 10.7 0 20.7 1.9 30.2 5.7 9.4 3.8 17.7 9.2 24.8 16s12.7 14.8 16.8 23.8 6.1 18.7 6.1 29.1c0 10.1-2 19.6-6.1 28.5z" fill="#00528b"/></svg>