<svg version="1.1" id="Layer_1" xmlns="http://www.w3.org/2000/svg" x="0" y="0" viewBox="0 0 150 150" xml:space="preserve"><style>.st0{fill:#00563f}</style><path class="st0" d="M57.2 113.4c1.2 0 2.1-.6 2.1-1.7 0-.9-.6-1.4-1.7-1.6-.9-.2-1.2-.3-1.2-.7 0-.2.2-.5.7-.5.5 0 .9.2 1.4.6l.6-.9c-.6-.5-1.3-.7-2.1-.7-1.2 0-2 .7-2 1.6 0 1.2.7 1.4 1.8 1.7.9.2 1.2.3 1.2.7 0 .3-.3.6-.8.6-.6 0-1.2-.2-1.6-.7l-.7.8c.6.6 1.5.8 2.3.8m2.9-4.7h1.3v-1h-1.3v1zm0 4.6h1.2V109h-1.2v4.3zm2.3 0h1.2v-2.4c0-.6.3-.8.8-.8s.7.3.7.8v2.4h1.2v-2.8c0-.9-.6-1.6-1.4-1.6-.6 0-.9.3-1.3.7v-.6h-1.2v4.3zm6.8.1c.8 0 1.3-.3 1.7-.8l-.7-.7c-.3.2-.6.5-.9.5-.7 0-1-.6-1-1.2s.5-1.2 1-1.2.7.2.9.5l.7-.8c-.3-.5-.9-.7-1.7-.7-1.3 0-2.2 1-2.2 2.2 0 1.3 1 2.2 2.2 2.2m4.4 0c.8 0 1.4-.3 1.7-.8l-.7-.6c-.3.3-.6.5-1 .5-.6 0-.9-.2-1-.8h3v-.3c0-1.2-.7-2.3-2.1-2.3-1.3 0-2.1 1-2.1 2.2 0 1.3.9 2.1 2.2 2.1m-1-2.5c.1-.6.5-.9.9-.9s.8.3.9.9h-1.8zm6.1 2.4h1.2v-5.5H79l-1.5.5.2 1 .9-.2v4.2zm4.4.1c1.3 0 2.2-.6 2.2-1.6 0-.7-.3-1-.9-1.3.5-.2.7-.6.7-1.2 0-.8-.8-1.5-2-1.5s-2 .7-2 1.5c0 .6.2.9.7 1.2-.6.2-.9.7-.9 1.4 0 .9.9 1.5 2.2 1.5m0-3.3c-.5 0-.8-.3-.8-.7 0-.3.3-.7.8-.7s.8.3.8.7c0 .4-.4.7-.8.7m0 2.3c-.6 0-.9-.3-.9-.7 0-.5.3-.7.9-.7.6 0 .9.2.9.7 0 .5-.3.7-.9.7m4.7 1c1.6 0 2.4-1.3 2.4-3 0-1-.2-1.7-.7-2.1-.5-.5-.8-.6-1.6-.6-1.3 0-2.1.8-2.1 2s.8 1.8 2 1.8c.5 0 .8-.1 1.2-.3-.1.7-.5 1.3-1.2 1.3-.5 0-.8-.1-1.2-.5l-.6 1c.5.2 1 .4 1.8.4m.2-3c-.6 0-.9-.3-.9-.8s.3-.8.9-.8c.6 0 .9.3.9.8.2.5-.3.8-.9.8m5 3c1.6 0 2.4-1.3 2.4-3 0-1-.2-1.7-.7-2.1-.5-.5-.8-.6-1.6-.6-1.3 0-2.1.8-2.1 2s.8 1.8 2 1.8c.5 0 .8-.1 1.2-.3-.1.7-.5 1.3-1.2 1.3-.5 0-.8-.1-1.2-.5l-.7.9c.5.3 1.1.5 1.9.5m.2-3c-.6 0-.9-.3-.9-.8s.3-.8.9-.8.9.3.9.8c.1.5-.3.8-.9.8M78.2 79.5c0 1.7-1.4 3.1-3.1 3.1S72 81.2 72 79.5c0-1.7 1.4-3.1 3.1-3.1 1.7-.1 3.1 1.4 3.1 3.1m66.4 12.6c-.2-.1-.3-.1-.6-.2-1.7-.6-2.8-.9-2.8-1.7V90c0-.7.8-1.2 1.7-1.2 1.2 0 2.3.3 4 1.3h.1c.1 0 .1 0 .2-.1l1.8-3.2v-.1c0-.1 0-.1-.1-.2-2-1-3.8-1.6-6-1.6-4.2 0-6.9 2.1-6.9 5.4v.1c0 3.3 2.7 4.6 5.5 5.4.2.1.5.1.7.2 1.8.6 2.5.9 2.5 1.7v.1c-.1.7-.7 1-1.8 1-1.7 0-3.2-.6-5.2-1.8h-.1c-.1 0-.1 0-.2.1l-2 3.1v.1c0 .1 0 .1.1.2 2.3 1.6 4.5 2.5 7 2.5 4.6 0 7.3-2 7.3-5.5v-.1c.3-3-2.5-4.4-5.2-5.3m-50.2 5.4c0 3.6-2.8 5.7-7.3 5.7-2.7 0-4.7-.9-7-2.5-.1 0-.1-.1-.1-.2v-.1l2-3.1c0-.1.1-.1.2-.1h.1c2 1.3 3.3 1.8 5.2 1.8 1.2 0 1.8-.3 1.8-1v-.1c0-.8-.8-1.3-2.5-1.7-.2-.1-.5-.1-.7-.2-3-.8-5.5-2.1-5.5-5.4 0-3.3 2.7-5.4 6.9-5.4 2.1 0 4 .6 6 1.6.1 0 .1.1.1.2v.1l-1.8 3.2c0 .1-.1.1-.2.1h-.1c-1.7-.8-2.8-1.3-4-1.3-1 0-1.7.5-1.7 1.2v.1c0 .8 1 1.2 2.8 1.7.2.1.3.1.6.2 2.4.6 5.2 2 5.2 5.2m-29.8 5.4H60c-.1 0-.2-.1-.2-.2V85.8c0-.1.1-.2.2-.2h4.4c.1 0 .2.1.2.2v2.1c1.2-1.6 2.9-2.5 4.6-2.5h.7c.1 0 .2.1.2.2v4.5c0 .1 0 .1-.1.2 0 0-.1.1-.2 0H69c-1.5 0-3.2.8-3.9 3.1-.1.7-.2 1.5-.2 2.4v6.7c-.1.3-.2.4-.3.4m-12.6-.2V96c0-1 .1-1.8.3-2.5.7-2.3 2.5-3.1 3.9-3.1h1s.1-.1.1-.2v-4.5c0-.1-.1-.2-.2-.2h-.7c-1.8 0-3.6.9-4.6 2.5v-2.1c0-.1-.1-.2-.2-.2h-4.4c-.1 0-.2.1-.2.2v16.8c0 .1.1.2.2.2h4.6c.2 0 .2-.1.2-.2m-28.8.2h-4.6c-.1 0-.2-.1-.2-.2 0-5.3-.5-11.3-.6-13.2-1.6 2.2-3.2 5.2-4.5 8.1 0 .1-.1.1-.2.1h-2.7c-.1 0-.2 0-.2-.1-1.3-2.9-2.8-5.9-4.5-8.1-.1 1.8-.6 7.8-.6 13.2 0 .1-.1.2-.2.2H.2c-.1 0-.2-.1-.2-.2 0-7.2.6-16.6 1.7-21.5 0-.1.1-.2.3-.2h3.7c.1 0 .1 0 .2.1 2.4 2.7 4.4 5.7 5.9 8.5 1.5-3 3.5-5.9 5.9-8.5 0 0 .1-.1.2-.1h3.7c.1 0 .2.1.2.2 1.2 4.8 1.7 14.3 1.7 21.5-.1.1-.2.2-.3.2m110.3-.2V92c0-4.4-2.1-6.7-6.1-6.7-2.7 0-4.4 1.3-5.3 2.3v-1.7c0-.1-.1-.2-.2-.2h-4.4c-.1 0-.2.1-.2.2v16.8c0 .1.1.2.2.2h4.6c.1 0 .2-.1.2-.2V95c0-.8.1-1.5.2-2.1.6-1.8 2.1-3 3.9-3 1.5 0 2.1.7 2.1 2.8v9.9c0 .1.1.2.2.2h4.5c.3.1.3 0 .3-.1m-27.9-13c-2.5 0-4.4 2-4.4 4.6s1.8 4.6 4.4 4.6c2.4 0 4.3-2 4.3-4.6s-1.9-4.6-4.3-4.6m0 13.6c-5.4 0-9.5-3.9-9.5-9 0-5.2 4-9 9.5-9 5.4 0 9.5 3.9 9.5 9s-4.1 9-9.5 9m-27.9-.6V85.8c0-.1-.1-.2-.2-.2h-4.6c-.1 0-.2.1-.2.2v16.8c0 .1.1.2.2.2h4.6c0 .1.2 0 .2-.1m-42.5-13c-2.5 0-4.4 2-4.4 4.6s1.8 4.6 4.4 4.6c2.4 0 4.3-2 4.3-4.6s-1.9-4.6-4.3-4.6m0 13.6c-5.4 0-9.5-3.9-9.5-9 0-5.2 4-9 9.5-9s9.5 3.9 9.5 9c-.2 5-4.2 9-9.5 9"/><path d="M89.8 78.5C85.6 80 82 77.2 82 77.2s1-4.5 5.2-6 7.8 1.3 7.8 1.3-1.1 4.3-5.2 6m10.9-21s-4-2.1-8 .1c-3.8 2.2-4 6.8-4 6.8s4 2.1 8-.1c3.8-2.2 4-6.8 4-6.8M83.3 67.6c-1.8 4-6.3 4.6-6.3 4.6s-2.4-3.8-.6-7.8c1.8-4 6.3-4.6 6.3-4.6s2.5 3.8.6 7.8m-27.8 4.9s1 4.5 5.2 6 7.8-1.3 7.8-1.3-1-4.5-5.2-6-7.8 1.3-7.8 1.3m2-14.9c3.8 2.2 4 6.8 4 6.8s-4 2.1-8-.1c-3.8-2.2-4-6.8-4-6.8s4.2-2.1 8 .1m5-7.4s-.9 4.5 2.2 7.6c3.1 3.1 7.6 2.2 7.6 2.2s.9-4.5-2.2-7.6c-3.1-3.1-7.6-2.2-7.6-2.2m16.4-6.7c0 4.5-3.8 6.9-3.8 6.9s-3.8-2.4-3.8-6.9 3.8-6.9 3.8-6.9c-.1 0 3.8 2.4 3.8 6.9m7.6 9.9c0 1.8-1.5 3.2-3.2 3.2-1.8 0-3.2-1.5-3.2-3.2s1.5-3.2 3.2-3.2 3.2 1.4 3.2 3.2M72 66.7c0 1.8-1.5 3.2-3.2 3.2s-3.2-1.5-3.2-3.2c0-1.8 1.5-3.2 3.2-3.2S72 65 72 66.7" fill="#ffc20e"/></svg>