<svg version="1.1" id="Layer_1" xmlns="http://www.w3.org/2000/svg" x="0" y="0" viewBox="0 0 150 150" xml:space="preserve"><style>.st1{fill:#1d2877}</style><path fill="#ffd420" d="M1.2 0h147.6v115.1L75.3 150 1.2 114.9z"/><path class="st1" d="M29.5 93.3h1.2c1.6 0 2.9-.6 2.9-2.4 0-1.8-1.3-2.3-2.9-2.3h-1.2v4.7zm-4.6-8.1h5.6c5.3 0 7.8 1.8 7.8 5.7 0 3.5-2.6 5.6-6.9 5.6h-1.8v6.1H25V85.2zM43.5 100c1.7 0 2.8-1.5 2.8-3.1-.6 0-1.2-.1-1.9-.1-1.5 0-2.7.5-2.7 1.7-.1 1 .7 1.5 1.8 1.5m3.1 2.7c0-.7-.1-1.4-.1-2-1 1.6-2.3 2.3-4.1 2.3-2.6 0-4.9-1.3-4.9-4.1 0-4 4.3-4.4 6.7-4.4.7 0 1.5.1 2.1.2 0-1.8-1.3-2.3-3-2.3-1.5 0-2.9.3-4.1 1l-.2-3.1c1.6-.7 3.3-.9 5.2-.9 3.3 0 6.2 1.4 6.2 5.4v4.9c0 1 0 2 .3 3.1h-4.1v-.1zM52.2 104.5c.6.2 1.1.3 1.8.3 1.1 0 2-.7 2.3-1.8L51 89.7h4.9l2.8 8.5 2.7-8.5h4.5L61 101.8c-1.3 3.3-2.3 6.4-6.4 6.4-1 0-1.9-.1-2.8-.3l.4-3.4zM71.5 93.3h1.2c1.6 0 2.9-.6 2.9-2.4 0-1.8-1.3-2.3-2.9-2.3h-1.2v4.7zm-4.6-8.1h5.5c5.3 0 7.8 1.8 7.8 5.7 0 3.5-2.6 5.6-6.9 5.6h-1.8v6.1h-4.6V85.2zM90.6 96.2c0-2-.8-3.7-2.9-3.7-2.1 0-2.9 1.7-2.9 3.7 0 1.9.8 3.6 2.9 3.6 2.1 0 2.9-1.7 2.9-3.6m-10.4 0c0-4.3 3.3-6.8 7.6-6.8s7.6 2.5 7.6 6.8-3.3 6.8-7.6 6.8c-4.4 0-7.6-2.5-7.6-6.8M96.5 89.7h4.5v13h-4.5v-13zm4.5-1.5h-4.5v-2.9h4.5v2.9zM103.5 89.7h4.1v2.4c.9-1.9 2.7-2.7 4.7-2.7 3.6 0 5 2.5 5 5.2v8.1h-4.5v-6.3c0-2.5-.8-3.3-2.1-3.3-1.8 0-2.8 1.3-2.8 4.1v5.5h-4.5l.1-13zM118.1 89.7h2.6v-2.9l4.4-1.4v4.3h3.1v3.1h-3.1v4.8c0 1.6.4 2.4 1.8 2.4.5 0 .9-.1 1.4-.2l.2 2.9c-.8.1-1.7.3-2.8.3-4 0-5-1.8-5-4.9v-5.3h-2.6v-3.1z"/><path class="st1" d="M29.5 93.3h1.2c1.6 0 2.9-.6 2.9-2.4 0-1.8-1.3-2.3-2.9-2.3h-1.2v4.7zm-4.6-8.1h5.6c5.3 0 7.8 1.8 7.8 5.7 0 3.5-2.6 5.6-6.9 5.6h-1.8v6.1H25V85.2zM43.5 100c1.7 0 2.8-1.5 2.8-3.1-.6 0-1.2-.1-1.9-.1-1.5 0-2.7.5-2.7 1.7-.1 1 .7 1.5 1.8 1.5m3.1 2.7c0-.7-.1-1.4-.1-2-1 1.6-2.3 2.3-4.1 2.3-2.6 0-4.9-1.3-4.9-4.1 0-4 4.3-4.4 6.7-4.4.7 0 1.5.1 2.1.2 0-1.8-1.3-2.3-3-2.3-1.5 0-2.9.3-4.1 1l-.2-3.1c1.6-.7 3.3-.9 5.2-.9 3.3 0 6.2 1.4 6.2 5.4v4.9c0 1 0 2 .3 3.1h-4.1v-.1zM52.2 104.5c.6.2 1.1.3 1.8.3 1.1 0 2-.7 2.3-1.8L51 89.7h4.9l2.8 8.5 2.7-8.5h4.5L61 101.8c-1.3 3.3-2.3 6.4-6.4 6.4-1 0-1.9-.1-2.8-.3l.4-3.4zM71.5 93.3h1.2c1.6 0 2.9-.6 2.9-2.4 0-1.8-1.3-2.3-2.9-2.3h-1.2v4.7zm-4.6-8.1h5.5c5.3 0 7.8 1.8 7.8 5.7 0 3.5-2.6 5.6-6.9 5.6h-1.8v6.1h-4.6V85.2zM90.6 96.2c0-2-.8-3.7-2.9-3.7-2.1 0-2.9 1.7-2.9 3.7 0 1.9.8 3.6 2.9 3.6 2.1 0 2.9-1.7 2.9-3.6m-10.4 0c0-4.3 3.3-6.8 7.6-6.8s7.6 2.5 7.6 6.8-3.3 6.8-7.6 6.8c-4.4 0-7.6-2.5-7.6-6.8M96.5 89.7h4.5v13h-4.5v-13zm4.5-1.5h-4.5v-2.9h4.5v2.9zM103.5 89.7h4.1v2.4c.9-1.9 2.7-2.7 4.7-2.7 3.6 0 5 2.5 5 5.2v8.1h-4.5v-6.3c0-2.5-.8-3.3-2.1-3.3-1.8 0-2.8 1.3-2.8 4.1v5.5h-4.5l.1-13zM118.1 89.7h2.6v-2.9l4.4-1.4v4.3h3.1v3.1h-3.1v4.8c0 1.6.4 2.4 1.8 2.4.5 0 .9-.1 1.4-.2l.2 2.9c-.8.1-1.7.3-2.8.3-4 0-5-1.8-5-4.9v-5.3h-2.6v-3.1zM95.5 48.9h-5.1v-15h5.1c5.7 0 11.3.8 11.3 7.2-.1 6.7-5.7 7.8-11.3 7.8m12.3-29.1H67.7c6.1 0 19.5 5.4 19.5 20.9C87.2 56.4 76.4 63 67.7 63v17.5H91V63h16.7c12.2 0 22.3-6.5 22.3-22.3 0-16.4-12.7-20.9-22.2-20.9"/><path class="st1" d="M52.7 48.9h-5.1v-15h5.1c5.7 0 11.3.8 11.3 7.2-.1 6.7-5.8 7.8-11.3 7.8M24.9 19.8v60.7h23.3V63h19.6V19.8H24.9z"/></svg>