<svg version="1.1" id="Layer_1" xmlns="http://www.w3.org/2000/svg" x="0" y="0" viewBox="0 0 150 150" xml:space="preserve"><style>.st1{fill:#fff}</style><path d="M132.3 144.2c0 2.7-2.2 4.8-4.8 4.8H22.6c-2.7 0-4.8-2.2-4.8-4.8V5.8C17.8 3.1 20 1 22.6 1h104.9c2.7 0 4.8 2.2 4.8 4.8v138.4z" fill="#e3307c"/><path class="st1" d="M126.4 59.1c0 28.4-23 51.5-51.5 51.5s-51.5-23-51.5-51.5 23-51.5 51.5-51.5 51.5 23.1 51.5 51.5zM74.9 10.8c-26.7 0-48.3 21.6-48.3 48.3s21.6 48.3 48.3 48.3 48.3-21.6 48.3-48.3-21.7-48.3-48.3-48.3z"/><circle cx="74.9" cy="59.1" r="48.3" fill="#1f5a8b"/><circle class="st1" cx="108" cy="58.4" r="8"/><path class="st1" d="M91.5 50.4c1.5 0 2.7-1.2 2.7-2.7v-11c0-1.5-1.2-2.7-2.7-2.7-6.3 0-12 2.4-16.3 6.2-4.3-3.9-10-6.2-16.3-6.2-13.5 0-24.4 10.9-24.4 24.4s10.9 24.4 24.4 24.4c6.3 0 12-2.4 16.3-6.2 4.3 3.9 10 6.2 16.3 6.2 1.5 0 2.7-1.2 2.7-2.7v-11c0-1.5-1.2-2.7-2.7-2.7-4.4 0-8-3.6-8-8s3.6-8 8-8zm-32.6 16c-4.4 0-8-3.6-8-8s3.6-8 8-8 8 3.6 8 8-3.6 8-8 8zM25.3 123.2h3l.2 2.1h.1c1-1.5 2.6-2.4 4.7-2.4 3.1 0 5.7 2.7 5.7 6.9 0 4.9-3.1 7.3-6.2 7.3-1.7 0-3.1-.7-3.8-1.8h-.1v7h-3.4s-.2-17.8-.2-19.1zm3.5 7.9c0 .3 0 .6.1 1 .3 1.4 1.6 2.4 3 2.4 2.2 0 3.5-1.8 3.5-4.5 0-2.4-1.2-4.4-3.4-4.4-1.4 0-2.7 1-3.1 2.5-.1.3-.1.6-.1.9v2.1zM52.3 133.5c0 1.2.1 2.4.2 3.3h-3.1l-.2-1.5h-.1c-.8 1.1-2.3 1.8-4 1.8-2.7 0-4.3-2-4.3-4.1 0-3.4 3-5.2 8.1-5.1v-.2c0-.9-.4-2.4-2.8-2.4-1.3 0-2.7.4-3.7 1l-.7-2.2c1-.6 2.8-1.2 4.9-1.2 4.4 0 5.6 2.8 5.6 5.7l.1 4.9zm-3.3-3.4c-2.4-.1-4.8.5-4.8 2.5 0 1.3.9 2 2 2 1.4 0 2.4-.9 2.7-1.9.1-.3.1-.5.1-.8v-1.8zM57.8 123.2l2.5 7.3c.3.8.6 1.9.8 2.7h.1c.2-.8.5-1.8.7-2.7l2.1-7.3h3.7l-3.4 9.3c-1.9 5.1-3.1 7.3-4.8 8.7-1.3 1.2-2.7 1.6-3.6 1.8l-.8-2.9c.6-.1 1.3-.4 2-1 .6-.4 1.4-1.2 1.9-2.2.1-.3.2-.4.2-.6 0-.1 0-.3-.2-.7l-5-12.5 3.8.1zM68.4 134.8l5.1-6.5c.7-.8 1.3-1.5 2-2.3v-.1h-6.6v-2.7h10.8v2.1l-5 6.4c-.7.8-1.3 1.6-2 2.3v.1h7.2v2.7H68.4v-2zM95 129.8c0 5-3.5 7.2-7 7.2-3.9 0-6.8-2.7-6.8-7 0-4.5 2.9-7.2 7-7.2 4 0 6.8 2.9 6.8 7zm-10.3.2c0 2.6 1.3 4.6 3.4 4.6 2 0 3.3-1.9 3.3-4.7 0-2.1-1-4.6-3.3-4.6-2.4.1-3.4 2.4-3.4 4.7zM97.8 127.2c0-1.6 0-2.9-.1-4.1h3l.2 2h.1c.6-1.1 2.1-2.3 4.3-2.3 2.4 0 4.8 1.5 4.8 5.8v8.1h-3.4V129c0-2-.7-3.4-2.6-3.4-1.4 0-2.3 1-2.7 2-.1.3-.1.7-.1 1.1v8h-3.5v-9.5zM116.2 130.9c.1 2.5 2 3.5 4.2 3.5 1.6 0 2.7-.2 3.8-.6l.5 2.4c-1.2.5-2.8.9-4.8.9-4.4 0-7-2.7-7-6.9 0-3.8 2.3-7.3 6.7-7.3s5.9 3.6 5.9 6.6c0 .6-.1 1.1-.1 1.5l-9.2-.1zm6-2.4c0-1.3-.5-3.3-2.8-3.3-2.1 0-3 1.9-3.2 3.3h6z"/></svg>