<svg version="1.1" id="Layer_1" xmlns="http://www.w3.org/2000/svg" x="0" y="0" viewBox="0 0 150 150" xml:space="preserve"><style>.st0{fill:#d82631}.st2{fill:#fff}</style><path class="st0" d="M69.7 19.9c16.7-.9 33.8 2.1 48.7 9.9 6.5 3.4 12.5 7.7 17.7 12.9 5.2 5.3 9.4 11.5 11.9 18.5 2.2 6.1 3 12.6 2.4 19.1-.7 6.7-3 13.2-6.5 18.9-5.4 9-13.5 16.1-22.5 21.3-13.2 7.7-28.5 11.4-43.7 11.7-16.3.3-32.9-3.2-47.1-11.3-6.7-3.7-12.8-8.5-17.8-14.3C8 101.3 4.4 95.2 2.4 88.5.5 82.3 0 75.7 1 69.4c1.1-6.9 3.9-13.5 7.8-19.2 3.4-4.9 7.6-9.2 12.2-12.9 11-8.6 24.3-13.9 38-16.2 3.6-.6 7.1-1 10.7-1.2zM144.8 26.9c.8-.6 1.1-1.8.4-2.6-.8-.7-2.1-.5-3.1-.5v5.5h1v-2.2h.6l1.2 2.1h1.2c-.3-.7-.8-1.5-1.3-2.3zm-.5-.8c-.4.1-.8.1-1.2.1v-1.6c.5.1 1 0 1.4.4.3.4 0 .8-.2 1.1z"/><path class="st0" d="M147.7 22.4c-1.3-1.4-3.4-1.8-5.2-1.4-1.4.3-2.5 1.2-3.3 2.3-1.5 2.2-1.2 5.5.8 7.3 2.1 2.1 5.8 2 7.8-.2 2.2-2.1 2.1-5.9-.1-8zm-.3 7c-.9 1.2-2.5 1.9-4 1.7-2.3-.2-4.2-2.5-4.1-4.8 0-2 1.5-3.9 3.4-4.4 2.1-.6 4.5.7 5.4 2.7.6 1.6.4 3.5-.7 4.8z"/><path d="M144.8 26.9c.8-.6 1.1-1.8.4-2.6-.8-.7-2.1-.5-3.1-.5v5.5h1v-2.2h.6l1.2 2.1h1.2c-.3-.7-.8-1.5-1.3-2.3zm-.5-.8c-.4.1-.8.1-1.2.1v-1.6c.5.1 1 0 1.4.4.3.4 0 .8-.2 1.1z" fill="#fffefe"/><path class="st0" d="M144.8 26.9c.8-.6 1.1-1.8.4-2.6-.8-.7-2.1-.5-3.1-.5v5.5h1v-2.2h.6l1.2 2.1h1.2c-.3-.7-.8-1.5-1.3-2.3zm-.5-.8c-.4.1-.8.1-1.2.1v-1.6c.5.1 1 0 1.4.4.3.4 0 .8-.2 1.1z"/><path class="st2" d="M76.3 47.2c-2.7-2-6.2-2.8-9.5-2.4-2.9.4-5.7 1.8-7.7 4-4 4.4-4.2 11.7-.6 16.4 1.8 2.4 4.6 4.1 7.6 4.6 2.8.5 5.8.1 8.3-1.2 2.6-1.3 4.7-3.6 5.7-6.3 1-2.4 1.2-5.1.7-7.7-.4-2.9-2.1-5.6-4.5-7.4zm-1.9 17.4c-2.2 2-5.5 2.6-8.4 1.7-2.1-.6-4-2.1-5-4.1-1.1-2-1.4-4.4-1.1-6.7.4-2.4 1.7-4.7 3.7-6.1 1.3-.9 2.9-1.4 4.5-1.4 2.2-.1 4.5.6 6.2 2.1 4.2 3.7 4.2 10.9.1 14.5zM85.8 56.8c1.6 1.4 3.8 1.9 5.8 2.6 1.2.4 2.5.9 3.4 1.8 1 1.1.8 2.9-.2 3.9-1.1 1.1-2.7 1.5-4.2 1.5-2.4-.1-4.6-1.1-6.5-2.4v3.6c2 1.6 4.5 2.4 7.1 2.3 2.3-.1 4.7-.9 6.3-2.7 1.1-1.1 1.7-2.7 1.9-4.3.2-1.8-.3-3.7-1.7-5-1.7-1.5-4-2-6-2.7-1.3-.4-2.8-.9-3.7-2.1-.4-.5-.5-1.2-.5-1.9 0-1.3.9-2.3 2-2.9 1.1-.6 2.4-.5 3.6-.5 1.7.1 3.3 1 4.7 1.9 0-1.2.1-2.4-.1-3.6-1.4-1.1-3.3-1.5-5.1-1.7-2-.1-4.1.3-5.8 1.4-1.9 1.2-3.1 3.4-3 5.7-.2 2 .5 3.9 2 5.1zM53.3 56.5c1.7-3 1.3-7.3-1.4-9.6-1.4-1.2-3.3-1.6-5.1-1.6H38v24.2h3.6v-9.8h5.8c2.3-.1 4.7-1.1 5.9-3.2zm-11.7 0v-8h4.8c1.4 0 3 .5 3.9 1.8.7 1.1.8 2.6.3 3.9-.6 1.5-2.2 2.2-3.7 2.3-1.8.1-3.6 0-5.3 0zM119.5 48.7v-3.4h-18.9v3.4h7.6v20.8h3.6V48.7h7.7zM29 76.2c-3.5-.1-7.1 1.4-9.5 4.1-4 4.5-4.2 11.8-.5 16.5 1.8 2.4 4.5 4 7.5 4.5 3.3.6 6.9 0 9.7-1.9 2.3-1.5 4-3.9 4.8-6.5 1.4-4.4.4-9.6-2.8-12.9-2.3-2.5-5.8-3.9-9.2-3.8zm6.5 19.2c-2.8 3.2-8.1 3.7-11.5 1.2-2.4-1.7-3.7-4.7-3.7-7.6-.1-2.5.8-5.1 2.6-6.9 1.1-1.2 2.6-2 4.2-2.3 2.2-.5 4.6-.1 6.6 1 2 1.2 3.4 3.2 3.9 5.5.7 3.1.1 6.7-2.1 9.1zM96.8 95.7c-1.7-1.7-2.5-4-2.7-6.3-.1-2.7.7-5.7 2.8-7.6 1.5-1.4 3.6-2.1 5.7-2.2 2.7-.1 5.5.6 7.7 2.2v-3.5c-2.1-1.5-4.8-2.1-7.3-2-3.4-.1-6.9 1.3-9.3 3.9-4.5 4.7-4.5 12.9 0 17.6 2.1 2.3 5.2 3.6 8.3 3.8 2.9.2 5.9-.3 8.3-2V96c-1.9 1.4-4.3 2.2-6.7 2.2-2.5.1-5-.7-6.8-2.5zM45 101h3.6V90.7h10.3v-3.4H48.6v-7.1h11.5v-3.4H45V101zM63.8 101h3.6V90.7h10.3v-3.4H67.4v-7.1h11.5v-3.4H63.8c.1 8.1 0 16.1 0 24.2zM82.8 76.8V101h3.5V76.8h-3.5zM118 97.6v-7.3h11.1V87H118v-6.7h12.1v-3.4h-15.7v24.2h16.3v-3.4c-4.3-.1-8.5-.1-12.7-.1z"/></svg>