<svg xmlns="http://www.w3.org/2000/svg" viewBox="0 0 150 150"><radialGradient id="a" cx="148.823" cy="76.445" r="13.852" gradientUnits="userSpaceOnUse"><stop offset="0" stop-color="#fefcf7"/><stop offset=".9" stop-color="#ed8b00"/></radialGradient><path d="M114.5 90.8c18.7 0 31.6-12.4 34-14.9.3-.3.7-.3 1 0 .3.3.3.7 0 1-.6.6-1.9 1.9-3.8 3.4-2.3 1.9-4.8 3.6-7.4 5.1-3.4 2-7 3.6-10.6 4.7-4.4 1.4-8.8 2-13.3 2h-.4l.5-1.3z" fill="url(#a)"/><path d="M128.9 57.7h-1.6c-.2 0-.4.1-.5.4l-3.4 9.2-.2.6-.2-.6-3.5-9.2c-.1-.3-.2-.4-.5-.4h-3.7c-.2 0-.3.1-.3.3 0 .1 0 .2.2.5l6.2 14.3c-.1 2.5-2.4 3.4-5.1 2.6-.4-.1-.7-.2-1.1-.2-.2 0-.4.2-.4.5v1.9c0 .3.2.6.7.7.6.2 1 .2 1.4.2 2.6 0 5.1-1.8 5.9-4l6.2-16.1c.1-.2.1-.3.1-.4.1-.2 0-.3-.2-.3zM60.6 61c0-2.2 4.2-2 6.7-.3.2.1.5.3.6.3.3 0 .5-.1.5-.6v-1.1c0-.4-.1-.7-.5-.9-4.4-1.8-10.3-.8-10.3 3.9 0 5.4 8.6 4.3 8.6 7.2 0 2.3-4 2.6-7 .3-.2-.2-.4-.3-.6-.3-.3 0-.5.1-.5.6v1.3c0 .4.1.7.5.9 3.8 1.7 10.7 1.7 10.7-4.5 0-5.3-8.7-4.1-8.7-6.8zm7.5-2.6c.1 0 .1 0 0 0 .1 0 .1 0 0 0zm-42.6-1.1c-1.8 0-3.9.4-5.3 1.1-.4.2-.5.5-.5.8v1.5c0 .5.4.7.6.7.4 0 .7-.4.9-.5 1.3-.8 2.5-1.4 4.2-1.4 2.1 0 2.4 1.4 2.4 3 0 .8-.3 1-3.2 1.4-1.8.2-5.9 1-5.9 4.8 0 3.1 2.4 4.7 5.3 4.7 1.6 0 2.8-.7 3.9-1.6l.1.9c0 .2.2.4.3.4h3.1c.2 0 .4-.2.4-.4V62c-.1-2.8-1.5-4.7-6.3-4.7zm2.2 12.3c0 .4-1.2 1.6-2.7 1.6-1.8 0-2.5-1.3-2.5-2.6 0-1.8 1.4-3.5 5.2-3.5v4.5zM6.1 56.7c0-1.6 1.5-2.6 3.4-2.6 1.7 0 3 .6 4.3 1.6.4.3.6.4.9.4.4 0 .5-.2.5-.5v-2c0-.3-.1-.5-.4-.6-1.2-.4-3.2-.9-5.4-.9-4.5 0-7 2.8-7 5.9 0 6.9 10.6 5.4 10.6 10.1 0 2.8-4.1 4.8-8.8 1.5-.4-.3-.6-.5-1-.5-.6 0-.7.3-.7.6v1.7c0 .3.1.5.4.7 5.7 2.7 13.8 1.1 13.8-5.7.2-6.2-10.6-5.8-10.6-9.7zm73.5.8c-2.3 0-3.8 1.2-4.5 1.7v-6.8c0-.2-.2-.4-.4-.4h-3.3c-.2 0-.3.2-.3.4V70c0 .5.1 1.2.6 1.6 1.2.9 3 1.8 5.4 1.8 4.5 0 8.1-3.5 8.1-8.7.1-4.1-2.1-7.2-5.6-7.2zm-2.2 14c-1 0-1.5-.2-1.8-.4-.4-.3-.5-.6-.5-.9V61c.5-.4 1.4-1 2.6-1 3.1 0 3.4 4 3.4 5.4.1 3.9-1.5 6.1-3.7 6.1zM38.2 57.7H35c-.2 0-.3.2-.3.4v14.4c0 .2.2.4.3.4h3.3c.2 0 .4-.2.4-.4V58.1c-.1-.2-.2-.4-.5-.4zm-1.6-5.8c-1.5 0-2.2.9-2.2 1.9 0 1.2.9 2 2.2 2 1.3 0 2.1-.8 2.1-2 0-1-.7-1.9-2.1-1.9zm63.9 5.8h-3.3c-.2 0-.3.2-.3.4V68c0 2.2-.7 3.4-2.8 3.4-1.7 0-2.8-1-2.8-2.6V58.1c0-.2-.2-.4-.4-.4h-3.3c-.2 0-.3.2-.3.4V68c0 3.8 3.4 5.2 6.8 5.2s6.8-1.4 6.8-5.6v-9.5c0-.2-.2-.4-.4-.4zm12.8-.1h.2-.2zm0 0c-.6-.2-1.1-.2-1.5-.2-1.9 0-3.4 1.6-4.1 2.5l-.1-1.8c0-.2-.2-.4-.4-.4H104c-.2 0-.3.2-.3.4v14.4c0 .2.2.4.3.4h3.3c.2 0 .4-.2.4-.4v-9.2c0-2.9 2.8-3 4.6-2.7.4.1.8.2 1.1.2.2 0 .4-.2.4-.5v-2.1c.2-.2 0-.5-.5-.6zm-62.5-.3c-1.9 0-3.9.9-4.9 1.5l-.1-.8c0-.2-.2-.4-.4-.4h-3.2c-.2 0-.3.2-.3.4v14.4c0 .2.2.4.3.4h3.3c.2 0 .4-.2.4-.4V60.9c.6-.4 2-1.1 3.2-1.1 2.3 0 2.4 1.4 2.4 2.5v10.2c0 .2.2.4.3.4h3.3c.2 0 .4-.2.4-.4V62c.1-2.8-1.4-4.7-4.7-4.7zm92.2 1.1c.1 0 .1 0 0 0 .1 0 .1 0 0 0zm-.1-.1s.1 0 0 0c.1 0 0 0 0 0zm-7.3 2.7c0-2.2 4.2-2 6.7-.3.2.1.5.3.6.3.3 0 .5-.1.5-.6v-1.1c0-.4-.1-.7-.5-.9-4.4-1.8-10.3-.8-10.3 3.9 0 5.4 8.6 4.3 8.6 7.2 0 2.3-4 2.6-7 .3-.2-.2-.4-.3-.6-.3-.3 0-.5.1-.5.6v1.3c0 .4.1.7.5.9 3.8 1.7 10.7 1.7 10.7-4.5-.1-5.3-8.7-4.1-8.7-6.8zm-3.1-8.9h-1.6c-.4 0-.4.3-.4.5 0 .4 1 1.4 1 2.8s-.5 1.9-.5 2.4c0 .2.2.3.4.3h.7c1.5 0 3.3-6 .4-6z" fill-rule="evenodd" clip-rule="evenodd" fill="#ed8b00"/><linearGradient id="b" gradientUnits="userSpaceOnUse" x1=".779" y1="99.687" x2="112.354" y2="78.443"><stop offset="0" stop-color="#ed8b00" stop-opacity="0"/><stop offset=".15" stop-color="#ed8b00" stop-opacity=".5"/><stop offset=".5" stop-color="#ed8b00"/></linearGradient><path d="M1.7 97c0-.4.1-.9.2-1.3.4-1.8 1.6-3.6 3.3-5.2 3.4-3.2 8.7-5.6 15.7-7.2 6.7-1.5 14.9-2.3 24.5-2.3 18.2 0 32.2 3.7 44.5 6.9 9.1 2.4 17 4.4 24.6 4.4h.2v-1.4h-.2c-7.4 0-15.2-2-24.2-4.4-5.9-1.6-12.7-3.3-20.1-4.7-8.5-1.5-16.6-2.3-24.8-2.3-9.7 0-18 .8-24.8 2.4-3.5.8-6.7 1.9-9.4 3.1-2.8 1.3-5.1 2.8-7 4.5C2.3 91.3 1 93.3.5 95.4c-.1.6-.2 1.2-.2 1.7 0 .4 0 1 .7 1s.7-.8.7-1.1z" fill="url(#b)"/></svg>