<svg version="1.1" id="Layer_1" xmlns="http://www.w3.org/2000/svg" x="0" y="0" viewBox="0 0 150 150" xml:space="preserve"><style>.st0,.st1{fill-rule:evenodd;clip-rule:evenodd;fill:#004b94}.st1{fill:#e10025}</style><path class="st0" d="M11.5 89.1h18.3c.2 0 .2.1 0 .2-2 1-5 4-5 4-2 2-3.6 3.3-7.2 3.3H.1c-.1 0-.1-.2 0-.2 1.9-1.1 4.8-4.1 4.8-4.1 1.2-1.4 3.6-3.2 6.6-3.2zM131.6 89.1H150c.1 0 .1.1 0 .2-2.1 1-5 4-5 4-2.1 2-3.7 3.3-7.2 3.3h-17.5c-.1 0-.1-.2 0-.2 1.9-1.1 4.8-4.1 4.8-4.1 1.1-1.4 3.5-3.2 6.5-3.2zM41.5 89.1h18.3c.2 0 .2.1 0 .2-2 1-5 4-5 4-2 2-3.6 3.3-7.2 3.3H30.2c-.2 0-.2-.2-.1-.2 1.9-1.1 4.8-4.1 4.8-4.1 1.2-1.4 3.6-3.2 6.6-3.2zM71.5 89.1h18.3c.2 0 .2.1 0 .2-2 1-5 4-5 4-2 2-3.6 3.3-7 3.3H60.2c-.1 0-.1-.2-.1-.2 2-1.1 4.8-4.1 4.8-4.1 1.2-1.4 3.6-3.2 6.6-3.2zM101.5 89.1h18.4c.1 0 .1.1-.1.2-2 1-5 4-5 4-2 2-3.6 3.3-7 3.3H90.2c-.1 0-.1-.2 0-.2 1.9-1.1 4.8-4.1 4.8-4.1 1.1-1.4 3.5-3.2 6.5-3.2z"/><path class="st1" d="M106.6 53.4c-11.5 0-19.2 6-19.2 15.1 0 8.3 7 13.9 17.5 13.9 3.4 0 6.4-.4 9.9-1.4v-7c-2.5 2.8-5.4 3.8-8.7 3.8-6.2 0-10.5-4.1-10.5-10s4.4-10.1 10.6-10.1c3.3 0 6 1.3 8.1 3.5v-7c-2.2-.5-5-.8-7.7-.8zM20.5 58.3c4.3 0 9.4.9 11.5 2.7v-6.6H1.7V61c2.1-1.8 6.7-2.6 11.6-2.6v18.2c0 2.7-.2 3.4-1.3 4.8h9.7c-1.1-1.4-1.3-2.1-1.3-4.8V58.3h.1zM51.5 64.9c-1.7.6-4.9.7-6.5.7h-2.6v-7.2h3.4c3.1 0 8.3.6 10.4 2.5v-6.5H34c1.1 1.3 1.3 2.1 1.3 4.7v17.5c0 2.7-.2 3.4-1.2 4.8h23.5v-6.6c-3.2 2.5-9.4 2.5-11.9 2.5h-3.4v-7.6h2.5c1.7 0 4.8.2 6.6.9v-5.7h.1zM84.2 55.2c-3.5-1.2-8.1-1.8-11.6-1.8-6.4 0-12.6 2-12.6 8.9 0 11.7 19.2 5.6 19.2 12.8 0 2.3-3.4 3.3-6.2 3.3-4.9 0-8.3-.9-12.6-3.6v6c3.2 1.1 7.6 1.7 12.3 1.7 6.6 0 12.8-1.9 12.8-8.9 0-12.4-19.1-6.8-19.1-12.8 0-2.5 3.1-3.3 5.8-3.3 4.5 0 9.4 1.4 12.1 4.1v-6.4h-.1zM133.6 53.9c-10.4 0-17.7 6-17.7 14.4 0 8.3 6.6 13.8 16.3 13.8 10.5 0 17.7-5.8 17.7-14.3 0-8.4-6.6-13.9-16.3-13.9zm-.8 24.1c-5.6 0-9.1-4.5-9.1-10 0-5.6 3.5-10 9.1-10 5.4 0 9.1 4.5 9.1 10s-3.6 10-9.1 10z"/></svg>