<?xml version="1.0" encoding="UTF-8"?>
<svg width="360" height="722" version="1.1" viewBox="0 0 95.3 191" xmlns="http://www.w3.org/2000/svg" xmlns:cc="http://creativecommons.org/ns#" xmlns:dc="http://purl.org/dc/elements/1.1/" xmlns:rdf="http://www.w3.org/1999/02/22-rdf-syntax-ns#" xmlns:xlink="http://www.w3.org/1999/xlink">
 <metadata>
  <rdf:RDF>
   <cc:Work rdf:about="">
    <dc:format>image/svg+xml</dc:format>
    <dc:type rdf:resource="http://purl.org/dc/dcmitype/StillImage"/>
    <dc:title/>
   </cc:Work>
  </rdf:RDF>
 </metadata>
 <defs>
  <clipPath id="z">
   <path d="M56.7 2A53.5 53.5 0 003.2 55.6V666a53.5 53.5 0 0053.5 53.6h246.6a53.5 53.5 0 0053.5-53.6V55.6A53.5 53.5 0 00303.3 2zm-1.4 4h249.4c26.6 0 48 21.4 48 48v614.2c0 26.6-21.4 48-48 48H55.3c-26.6 0-48-21.4-48-48V54c0-26.6 21.4-48 48-48z" fill="#ebebeb"/>
  </clipPath>
  <clipPath id="n">
   <rect x="-13.9" y="25.9" width="4.4" height="7.4" ry=".5"/>
  </clipPath>
  <clipPath id="r">
   <path d="M.5 39.7c-.3 0-.5.2-.5.4v13c0 .2.2.4.5.4h3.4c.3 0 .5-.2.5-.4V40c0-.2-.2-.4-.5-.4z"/>
  </clipPath>
  <clipPath id="v">
   <path d="M.5 39.7c-.3 0-.5.2-.5.4v13c0 .2.2.4.5.4h3.4c.3 0 .5-.2.5-.4V40c0-.2-.2-.4-.5-.4z"/>
  </clipPath>
  <clipPath id="j">
   <path d="M.5 39.7c-.3 0-.5.2-.5.4v21c0 .2.2.4.5.4h3.4c.3 0 .5-.2.5-.4V40c0-.2-.2-.4-.5-.4z"/>
  </clipPath>
  <clipPath id="L">
   <path class="powerclip" d="M57.1.8h14.3V15H57.1zm-42.3 5a8.5 8.5 0 00-8.5 8.6v162.2c0 4.7 3.8 8.5 8.5 8.5h65.7c4.7 0 8.5-3.8 8.5-8.5V14.4c0-4.7-3.8-8.5-8.5-8.5h-8.3a1.4 1.4 0 00-1.4 1.4v.6c0 2.6-2 4.7-4.6 4.7H29c-2.6 0-4.6-2.1-4.6-4.7v-.6A1.4 1.4 0 0023 5.9z" fill="url(#d)"/>
  </clipPath>
  <clipPath id="J">
   <path class="powerclip" d="M3.4 180H92v13.4H3.4zM14.8 6a8.5 8.5 0 00-8.5 8.5v162.2c0 4.7 3.8 8.5 8.5 8.5h65.7c4.7 0 8.5-3.8 8.5-8.5V14.4c0-4.7-3.8-8.5-8.5-8.5h-8.3a1.4 1.4 0 00-1.4 1.4V8c0 2.5-2 4.6-4.6 4.6H29c-2.6 0-4.6-2.1-4.6-4.6v-.7A1.4 1.4 0 0023 5.9z" fill="url(#d)"/>
  </clipPath>
  <clipPath id="H">
   <path class="powerclip" d="M3.4-2.4H92v13.3H3.4zm11.4 8.3a8.5 8.5 0 00-8.5 8.5v162.2c0 4.7 3.8 8.5 8.5 8.5h65.7c4.7 0 8.5-3.8 8.5-8.5V14.4c0-4.7-3.8-8.5-8.5-8.5h-8.3a1.4 1.4 0 00-1.4 1.4v.6c0 2.6-2 4.7-4.6 4.7H29c-2.6 0-4.6-2.1-4.6-4.7v-.6A1.4 1.4 0 0023 5.9z" fill="url(#d)"/>
  </clipPath>
  <clipPath id="E">
   <path class="powerclip" d="M26 1.5h38.3v13.1H26zM14.9 5.9a8.5 8.5 0 00-8.5 8.5v162.2c0 4.7 3.8 8.5 8.5 8.5h65.7c4.7 0 8.5-3.8 8.5-8.5V14.4c0-4.7-3.8-8.5-8.5-8.5h-8.3a1.4 1.4 0 00-1.4 1.4v.6c0 2.6-2 4.7-4.6 4.7H29c-2.6 0-4.6-2.1-4.6-4.7v-.6A1.4 1.4 0 0023 5.9z" fill="url(#d)"/>
  </clipPath>
  <clipPath id="B">
   <path class="powerclip" d="M-2-1h99.5v193H-2zM14.9 6a8.5 8.5 0 00-8.5 8.5v162.2c0 4.7 3.8 8.5 8.5 8.5h65.7c4.7 0 8.5-3.8 8.5-8.5V14.4c0-4.7-3.8-8.5-8.5-8.5h-8.3a1.4 1.4 0 00-1.4 1.4v.6c0 2.6-2 4.7-4.6 4.7H29.2c-2.6 0-4.6-2.1-4.6-4.7v-.6a1.4 1.4 0 00-1.4-1.4z" fill="url(#f)"/>
  </clipPath>
  <clipPath id="y">
   <path class="powerclip" d="M-4.2-4.4H99.4v199.9H-4.2zm19 10.3a8.5 8.5 0 00-8.5 8.5v162.2c0 4.7 3.8 8.5 8.5 8.5h65.7c4.7 0 8.5-3.8 8.5-8.5V14.4c0-4.7-3.8-8.5-8.5-8.5h-8.3a1.4 1.4 0 00-1.4 1.4v.6c0 2.6-2 4.7-4.6 4.7H29c-2.6 0-4.6-2.1-4.6-4.7v-.6A1.4 1.4 0 0023 5.9z" fill="url(#d)"/>
  </clipPath>
  <clipPath id="x">
   <path class="powerclip" d="M-4.5-4.8H99.7v200.6H-4.5zM14.8 5.9a8.5 8.5 0 00-8.5 8.5v162.2c0 4.7 3.8 8.5 8.5 8.5h65.7c4.7 0 8.5-3.8 8.5-8.5V14.4c0-4.7-3.8-8.5-8.5-8.5h-8.3a1.4 1.4 0 00-1.4 1.4v.6c0 2.6-2 4.7-4.6 4.7H29c-2.6 0-4.6-2.1-4.6-4.7v-.6A1.4 1.4 0 0023 5.9z" fill="url(#d)"/>
  </clipPath>
  <clipPath id="u">
   <path class="powerclip" d="M-5 34.7H9.4v23.8H-5zm19.8-46.2A8.5 8.5 0 006.3-3v162.2c0 4.7 3.8 8.5 8.5 8.5h65.7c4.7 0 8.5-3.8 8.5-8.5V-3c0-4.7-3.8-8.5-8.5-8.5h-8.3a1.4 1.4 0 00-1.4 1.4v.7c0 2.5-2 4.6-4.6 4.6H29c-2.6 0-4.6-2-4.6-4.6v-.7a1.4 1.4 0 00-1.4-1.4z" fill="url(#g)"/>
  </clipPath>
  <clipPath id="q">
   <path class="powerclip" d="M-5 34.7H9.4v23.8H-5zM14.8 5.9a8.5 8.5 0 00-8.5 8.5v162.2c0 4.7 3.8 8.5 8.5 8.5h65.7c4.7 0 8.5-3.8 8.5-8.5V14.4c0-4.7-3.8-8.5-8.5-8.5h-8.3a1.4 1.4 0 00-1.4 1.4v.6c0 2.6-2 4.7-4.6 4.7H29c-2.6 0-4.6-2.1-4.6-4.7v-.6A1.4 1.4 0 0023 5.9z" fill="url(#d)"/>
  </clipPath>
  <clipPath id="m">
   <path class="powerclip" d="M-5 20.9H9.4v17.4H-5zm19.7-15a8.5 8.5 0 00-8.4 8.5v162.2c0 4.7 3.7 8.5 8.4 8.5h65.8c4.7 0 8.5-3.8 8.5-8.5V14.4c0-4.7-3.8-8.5-8.5-8.5h-8.3a1.4 1.4 0 00-1.4 1.4v.6c0 2.6-2.1 4.7-4.7 4.7h-37c-2.6 0-4.6-2.1-4.6-4.7v-.6A1.4 1.4 0 0023 5.9z" fill="url(#d)"/>
  </clipPath>
  <clipPath id="i">
   <path class="powerclip" d="M85.9 39.2h14.3v31.9H86zM14.8 6a8.5 8.5 0 00-8.5 8.5v162.2c0 4.7 3.8 8.5 8.5 8.5h65.7c4.7 0 8.5-3.8 8.5-8.5V14.4c0-4.7-3.8-8.5-8.5-8.5h-8.3a1.4 1.4 0 00-1.4 1.4v.6c0 2.6-2 4.7-4.6 4.7H29c-2.6 0-4.6-2.1-4.6-4.7v-.6A1.4 1.4 0 0023 5.9z" fill="url(#d)"/>
  </clipPath>
  <linearGradient id="e">
   <stop stop-color="#404040" offset="0"/>
   <stop stop-color="#464646" offset="0"/>
   <stop stop-color="#525252" stop-opacity="0" offset="1"/>
   <stop stop-color="#444" stop-opacity="0" offset="1"/>
  </linearGradient>
  <linearGradient id="c">
   <stop stop-color="#4f4f4f" stop-opacity=".1" offset="0"/>
   <stop stop-color="#4f4f4f" offset=".1"/>
   <stop stop-color="#4f4f4f" offset=".9"/>
   <stop stop-color="#4f4f4f" stop-opacity="0" offset="1"/>
  </linearGradient>
  <linearGradient id="b">
   <stop stop-color="#cbcbcb" stop-opacity=".3" offset="0"/>
   <stop stop-color="#cbcbcb" offset=".1"/>
   <stop stop-color="#cbcbcb" offset=".9"/>
   <stop stop-color="#cbcbcb" stop-opacity=".3" offset="1"/>
  </linearGradient>
  <linearGradient id="a">
   <stop stop-color="#404040" offset="0"/>
   <stop stop-color="#838383" offset=".6"/>
   <stop stop-color="#a7a7a7" offset="1"/>
  </linearGradient>
  <linearGradient id="C" x1="340.6" x2="349.6" y1="361.1" y2="361.1" gradientUnits="userSpaceOnUse" xlink:href="#a"/>
  <linearGradient id="D" x1="340.6" x2="349.6" y1="361.1" y2="361.1" gradientTransform="matrix(-.26458 0 0 .26458 95.5 0)" gradientUnits="userSpaceOnUse" xlink:href="#a"/>
  <linearGradient id="o" x1="-13.2" x2="-13.2" y1="26.3" y2="32.9" gradientUnits="userSpaceOnUse" xlink:href="#b"/>
  <linearGradient id="s" x1="-13.2" x2="-13.2" y1="26.3" y2="39.3" gradientTransform="translate(13.9 13.8)" gradientUnits="userSpaceOnUse" xlink:href="#b"/>
  <linearGradient id="k" x1="-13.2" x2="-13.2" y1="26.3" y2="47.3" gradientTransform="translate(13.9 13.8)" gradientUnits="userSpaceOnUse">
   <stop stop-color="#cbcbcb" stop-opacity=".3" offset="0"/>
   <stop stop-color="#cbcbcb" offset="0"/>
   <stop stop-color="#cbcbcb" offset="1"/>
   <stop stop-color="#cbcbcb" stop-opacity=".3" offset="1"/>
  </linearGradient>
  <linearGradient id="I" x1="8.3" x2="86.9" y1="8.5" y2="8.5" gradientTransform="translate(0 -2.6)" gradientUnits="userSpaceOnUse" xlink:href="#c"/>
  <linearGradient id="K" x1="8.3" x2="86.9" y1="8.5" y2="8.5" gradientTransform="matrix(1 0 0 -1 0 193.6)" gradientUnits="userSpaceOnUse" xlink:href="#c"/>
  <linearGradient id="d" x1="304.2" x2="303.2" y1="22.2" y2="920.1" gradientTransform="scale(.26458)" gradientUnits="userSpaceOnUse" xlink:href="#e"/>
  <linearGradient id="f" x1="304.2" x2="303.2" y1="22.2" y2="920.1" gradientTransform="translate(.1) scale(.26458)" gradientUnits="userSpaceOnUse" xlink:href="#e"/>
  <linearGradient id="g" x1="304.2" x2="303.2" y1="22.2" y2="920.1" gradientTransform="translate(0 -17.4) scale(.26458)" gradientUnits="userSpaceOnUse" xlink:href="#e"/>
  <filter id="A" x="0" y="0" width="1" height="1" color-interpolation-filters="sRGB">
   <feGaussianBlur stdDeviation=".3"/>
  </filter>
  <filter id="F" x="-.2" width="1.4" color-interpolation-filters="sRGB">
   <feGaussianBlur/>
  </filter>
  <filter id="G" color-interpolation-filters="sRGB">
   <feGaussianBlur/>
  </filter>
  <filter id="p" x="-.3" y="0" width="1.7" height="1.1" color-interpolation-filters="sRGB">
   <feGaussianBlur stdDeviation=".1"/>
  </filter>
  <filter id="t" x="-.3" y="0" width="1.7" height="1.1" color-interpolation-filters="sRGB">
   <feGaussianBlur stdDeviation=".1"/>
  </filter>
  <filter id="w" x="-.3" y="0" width="1.7" height="1.1" color-interpolation-filters="sRGB">
   <feGaussianBlur stdDeviation=".1"/>
  </filter>
  <filter id="l" x="-.3" y="0" width="1.7" height="1.1" color-interpolation-filters="sRGB">
   <feGaussianBlur stdDeviation=".1"/>
  </filter>
 </defs>
 <g transform="matrix(.22053 0 0 .22053 6.2999 5.8998)" fill="none">
  <path d="m0 0h375v44h-375z" fill="#fff"/>
  <rect x="336.5" y="17.833" width="21" height="10.333" rx="2.1667" opacity=".35" stroke="#000"/>
  <path d="m359 21v4c0.805-0.3388 1.328-1.1269 1.328-2s-0.523-1.6612-1.328-2" fill="#000" opacity=".4"/>
  <rect x="338" y="19.333" width="18" height="7.3333" rx="1.3333" fill="#000"/>
  <g clip-rule="evenodd" fill="#000" fill-rule="evenodd">
   <path d="m323.33 19.608c2.216 1e-4 4.347 0.8515 5.953 2.3783 0.121 0.1179 0.315 0.1164 0.434-0.0033l1.156-1.1667c0.06-0.0607 0.094-0.1429 0.093-0.2285 0-0.0856-0.035-0.1675-0.096-0.2275-4.215-4.0395-10.865-4.0395-15.08 0-0.061 0.06-0.096 0.1418-0.096 0.2274-1e-3 0.0856 0.033 0.1679 0.093 0.2286l1.156 1.1667c0.119 0.1199 0.313 0.1214 0.434 0.0033 1.606-1.5269 3.737-2.3783 5.953-2.3783zm0 3.7957c1.218-1e-4 2.392 0.4524 3.294 1.2696 0.122 0.116 0.315 0.1135 0.434-0.0056l1.154-1.1667c0.061-0.0612 0.095-0.1442 0.094-0.2305-1e-3 -0.0862-0.036-0.1686-0.098-0.2285-2.749-2.5564-7.004-2.5564-9.753 0-0.062 0.0599-0.097 0.1423-0.098 0.2286s0.033 0.1693 0.094 0.2304l1.154 1.1667c0.119 0.1191 0.312 0.1216 0.434 0.0056 0.902-0.8166 2.075-1.2691 3.291-1.2696zm2.313 2.5538c2e-3 0.0865-0.032 0.1699-0.094 0.2305l-1.997 2.0157c-0.059 0.0592-0.138 0.0925-0.222 0.0925-0.083 0-0.163-0.0333-0.221-0.0925l-1.998-2.0157c-0.062-0.0607-0.096-0.1441-0.094-0.2306s0.039-0.1684 0.104-0.2264c1.275-1.0789 3.143-1.0789 4.419 0 0.064 0.058 0.102 0.14 0.103 0.2265z"/>
   <path d="m309.67 17.667h-1c-0.553 0-1 0.4477-1 1v8.6666c0 0.5523 0.447 1 1 1h1c0.552 0 1-0.4477 1-1v-8.6666c0-0.5523-0.448-1-1-1zm-5.667 2.3333h1c0.552 0 1 0.4477 1 1v6.3333c0 0.5523-0.448 1-1 1h-1c-0.552 0-1-0.4477-1-1v-6.3333c0-0.5523 0.448-1 1-1zm-3.667 2.3333h-1c-0.552 0-1 0.4477-1 1v4c0 0.5523 0.448 1 1 1h1c0.553 0 1-0.4477 1-1v-4c0-0.5523-0.447-1-1-1zm-4.666 2h-1c-0.553 0-1 0.4477-1 1v2c0 0.5523 0.447 1 1 1h1c0.552 0 1-0.4477 1-1v-2c0-0.5523-0.448-1-1-1z"/>
   <path d="m31.932 29.271c-2.0068 0-3.5669-1.1939-3.8672-2.9517h2.1899c0.2051 0.6958 0.8643 1.1353 1.6919 1.1353 1.4502 0 2.3291-1.3989 2.2852-3.5962h-0.1318c-0.4834 0.9961-1.4649 1.5601-2.6953 1.5601-2.0069 0-3.4791-1.4795-3.4791-3.501 0-2.1973 1.6773-3.7573 4.043-3.7573 1.5235 0 2.7539 0.6665 3.4863 1.9043 0.586 0.9082 0.8863 2.124 0.8863 3.5668 0 3.5157-1.6553 5.6397-4.4092 5.6397zm0.0513-5.5591c1.1059 0 1.9189-0.7837 1.9189-1.8457 0-1.0693-0.8276-1.897-1.9116-1.897s-1.919 0.8204-1.919 1.875c0 1.084 0.8057 1.8677 1.9117 1.8677zm7.471 4.2188c0.791 0 1.2963-0.5347 1.2963-1.2745 0-0.7397-0.5053-1.267-1.2963-1.267-0.7837 0-1.2964 0.5273-1.2964 1.267 0 0.7398 0.5127 1.2745 1.2964 1.2745zm0-5.4053c0.791 0 1.2963-0.5347 1.2963-1.2744 0-0.7398-0.5053-1.2671-1.2963-1.2671-0.7837 0-1.2964 0.5273-1.2964 1.2671 0 0.7397 0.5127 1.2744 1.2964 1.2744zm8.3132 6.4746v-1.8457h-5.1709v-1.9556c0.9522-1.7944 2.3291-3.977 4.1822-6.7675h3.0981v6.8847h1.3843v1.8384h-1.3843v1.8457zm-3.186-3.7354v0.1172h3.2373v-5.2295h-0.1172c-0.9668 1.4429-1.9116 2.9224-3.1201 5.1123zm10.65 3.7354h2.2119v-10.569h-2.2046l-2.7319 1.8823v2.0581l2.5928-1.7871h0.1318z"/>
   <path d="m76.968 0h111.03v29.988c-33.379-0.0476-66.902-0.0946-79.999-0.0946-19.058 0-23.745-15.392-24.873-24.087-0.408-3.1466-2.9868-5.8071-6.1598-5.8071zm-39.403 0h-37.565v37.536c0-20.73 16.826-37.536 37.565-37.536z"/>
   <path d="m298.03 0h-111.03v29.988c33.379-0.0476 66.902-0.0946 79.999-0.0946 19.058 0 23.745-15.392 24.873-24.087 0.408-3.1466 2.987-5.8071 6.16-5.8071zm39.403 0h37.565v37.536c0-20.73-16.826-37.536-37.565-37.536z"/>
  </g>
 </g>
 <g clip-path="url(#i)">
  <path d="M94.8 44.2c.2 0 .5.2.5.5v20.9c0 .3-.3.5-.5.5h-3.5a.5.5 0 01-.4-.5v-21c0-.2.2-.4.4-.4z"/>
  <path transform="matrix(-1 0 0 1 95.3 4.5)" d="M.5 40c-.2 0-.4.3-.4.5v20.2c0 .3.2.4.4.4h.2v-21z" clip-path="url(#j)" fill="url(#k)" filter="url(#l)"/>
 </g>
 <g clip-path="url(#m)">
  <path d="M.4 25.9H4c.3 0 .5.2.5.4v6.5c0 .3-.2.5-.5.5H.4a.5.5 0 01-.4-.5v-6.5c0-.2.2-.4.4-.4z"/>
  <path transform="translate(13.9)" d="M-13.3 26.3c-.3 0-.4.1-.4.4v5.8c0 .2.1.4.4.4v-6.6z" clip-path="url(#n)" fill="url(#o)" filter="url(#p)"/>
 </g>
 <g clip-path="url(#q)">
  <path d="M.5 39.7c-.3 0-.5.2-.5.4v13c0 .2.2.4.5.4h3.4c.3 0 .5-.2.5-.4V40c0-.2-.2-.4-.5-.4z"/>
  <path d="M.5 40c-.2 0-.4.3-.4.5v12.2c0 .2.2.4.4.4h.2v-13z" clip-path="url(#r)" fill="url(#s)" filter="url(#t)"/>
 </g>
 <g transform="translate(0 17.4)" clip-path="url(#u)">
  <path d="M.5 39.7c-.3 0-.5.2-.5.4v13c0 .2.2.4.5.4h3.4c.3 0 .5-.2.5-.4V40c0-.2-.2-.4-.5-.4z"/>
  <path d="M.5 40c-.2 0-.4.3-.4.5v12.2c0 .2.2.4.4.4h.2v-13z" clip-path="url(#v)" fill="url(#s)" filter="url(#w)"/>
 </g>
 <path d="M14.5.2a14 14 0 00-14 14v162.6a14 14 0 0014 14h28.3l.6-.9h8.4l.7.9h28.3a14 14 0 0014-14V14.2a14 14 0 00-14-14z" clip-path="url(#x)"/>
 <g clip-path="url(#y)">
  <g>
   <path d="M.8 19.8H2v-1.3H1z" fill="#7d7e7f"/>
   <path d="M.8 171.2H2V19.8H1z" fill="#ebebeb"/>
   <path d="M.8 172.5H2v-1.3H1z" fill="#7d7e7f"/>
   <path d="M94.4 172.5h-1v4.4c0 7-5.8 12.7-12.8 12.7h-66c-7 0-12.7-5.7-12.7-12.7v-4.4H1v3.8c0 7.8 6.3 14.2 14.1 14.2h65.2c7.9 0 14.2-6.4 14.2-14.2z" fill="#ebebeb"/>
   <path d="m94.4 171.2h-1v1.3h1z" fill="#7d7e7f"/>
   <path d="m94.4 19.8h-1v151.4h1z" fill="#ebebeb"/>
   <path d="m94.4 18.5h-1v1.3h1z" fill="#7d7e7f"/>
   <path d="M15 .6C7.2.6.8 6.9.8 14.8v3.7H2v-4.2c0-7 5.7-12.6 12.7-12.6h66c7 0 12.7 5.6 12.7 12.6v4.2h1.1v-3.7C94.4 6.9 88.1.6 80.2.6z" fill="#ebebeb"/>
  </g>
  <path transform="scale(.26458)" d="M38 11.6c-6.7-.2-19.2 1.8-32.1 16.3-18.8 21-2 8.4-2 8.4S15.4 18.4 31.5 16c16-2.3 11.2-4 11.2-4s-1.8-.4-4.8-.5zm284 0c-3 0-4.7.6-4.7.6s-4.9 1.6 11.2 4 27.6 20 27.6 20 16.8 12.8-2-8.3c-12.9-14.5-25.4-16.5-32-16.3zM-2.3 681.9c-1.5-.1-.5 2.3 8.3 12.2 18.7 21 36.8 15.7 36.8 15.7s4.9-1.6-11.2-4c-16-2.2-27.6-20-27.6-20s-4.7-3.7-6.3-3.9zm364.8 0c-1.6.2-6.3 3.8-6.3 3.8s-11.6 17.9-27.6 20.2c-16 2.3-11.2 4-11.2 4s18 5.3 36.8-15.8c8.8-9.9 9.8-12.3 8.3-12.2z" clip-path="url(#z)" fill="#434343" fill-rule="evenodd" filter="url(#A)"/>
 </g>
 <g transform="translate(-.1)" clip-path="url(#B)">
  <path transform="scale(.26458)" d="M325.6 15.4c-1.2-.2-.6 1 2 3.5 8.7 8 14 19.7 14 32.7v619.1c0 13-5.3 24.6-14 32.7-2.6 2.4-3.2 3.6-2 3.5.7 0 2-.6 3.9-1.6a41.3 41.3 0 0020-37V54c0-15.5-7.3-30.2-20-37-1.9-1-3.2-1.5-4-1.5z" fill="url(#C)"/>
  <path d="M9.3 4c.3 0 .2.3-.5 1a11.7 11.7 0 00-3.7 8.6v163.9c0 3.4 1.4 6.5 3.7 8.6.7.7.8 1 .5 1l-1-.5a11 11 0 01-5.3-9.8V14.3c0-4.1 2-8 5.3-9.8l1-.4z" fill="url(#D)"/>
 </g>
 <g clip-path="url(#E)">
  <g>
   <path d="M42.7 7.3h10a.7.7 0 110 1.4h-10a.7.7 0 110-1.4z" fill="#1e1e1e"/>
   <circle cx="57.9" cy="7.9" r="1.3" fill="#2b2b2b"/>
   <circle cx="57.9" cy="7.9" r="1.1" fill="#0a0d13"/>
   <circle cx="57.9" cy="7.9" r=".8" fill="#091427"/>
  </g>
  <path d="M57.4 7.3c-.1 0-.3.2-.3.5s.1.4.2.4c0 0 .4-.4 0-.9z" fill="#235a91" fill-opacity=".6" fill-rule="evenodd" filter="url(#F)"/>
  <path d="M58 7.2l-.1.5c0 .1.2.5.4.4.3 0 .3-.4.2-.6-.1-.2-.3-.3-.5-.3z" fill="#235a91" fill-opacity=".6" fill-rule="evenodd" filter="url(#G)"/>
  <path d="M40.2 8a1 1 0 01-1 1 1 1 0 01-1-1 1 1 0 011-1 1 1 0 011 1h-1z" fill="#0f0f0f"/>
  <path d="M34.2 8a1.6 1.6 0 01-1.5 1.6A1.6 1.6 0 0131 8.1a1.6 1.6 0 011.5-1.6A1.6 1.6 0 0134.2 8h-1.5z" fill="#101010"/>
 </g>
 <g>
  <path d="M14.6 2.6c-2.3 0-4.4.6-6.2 1.8v1.5C10 4.7 12.2 4 14.4 4H81c2.2 0 4.3.6 6 1.8V4.4c-1.8-1.2-4-1.8-6.2-1.8h-40z" clip-path="url(#H)" fill="url(#I)"/>
  <path d="M14.6 188.4c-2.3 0-4.4-.7-6.2-1.8V185c1.7 1.1 3.8 1.8 6 1.8H81c2.2 0 4.3-.7 6-1.8v1.5c-1.8 1.1-4 1.8-6.2 1.8h-40z" clip-path="url(#J)" fill="url(#K)"/>
  <path d="M66.4 7.9a2.1 2.1 0 01-2.1 2A2.1 2.1 0 0162 8a2.1 2.1 0 012.1-2.1 2.1 2.1 0 012.2 2h-2.1z" clip-path="url(#L)" fill="#0f0f0f"/>
 </g>
</svg>
